<svg id="Capa_1" data-name="Capa 1" xmlns="http://www.w3.org/2000/svg" viewBox="0 0 586.9 302.59"><defs><style>.cls-1{fill:#fff;}</style></defs><title>chinchilla</title><path class="cls-1" d="M522.5,455.4c-3,4.56-6,9.37-9.28,14-3.41,4.74-7.87,7.77-14.08,6-5.48-1.52-9.21-6.85-9.83-13.5-.05-.62-.15-1.22-.36-2.86-1.13,1.71-1.71,2.64-2.34,3.54-3.88,5.55-7.48,11.33-11.74,16.58-3.61,4.45-8.78,5.84-14.29,4s-8.2-6.24-8.91-11.91c-.24-1.93-.56-3.85-.94-6.48-.58,1.13-.83,1.74-1.18,2.29-4.26,6.75-8.38,13.59-12.84,20.19-3.19,4.71-8.15,5.94-13.43,4.83s-8.1-4.93-9.7-9.81c-.4-1.23-.64-2.51-1.18-4.66-1,1.82-1.5,3.05-2.22,4.15-3,4.67-5.85,9.54-9.3,13.9s-8.27,5.56-13.63,3.86c-4.91-1.55-7-5.28-7.51-10.14-.1-1-.38-1.9-.56-2.78-3.12,5.05-6,10.2-9.35,15-4.11,5.94-10.54,8-16,5.66-4.92-2.12-7.69-7.18-6.43-14.13,2-11.06,4.5-22,7.13-33s5.65-21.53,8.47-32.3a24.19,24.19,0,0,0,.38-2.58c-2.78-1-4.06.74-5.35,2.33-6.75,8.31-10.93,18-13.76,28.14-5.33,19.16-10.34,38.41-15.56,57.91l-16.47,4.58c1.22-6.73,2.37-13,3.51-19.28l-.54-.32c-.94,1.52-1.91,3-2.81,4.56-4.19,7.14-8.7,14-15.83,18.63a18.44,18.44,0,0,1-24.54-4c-1.36-1.74-2.1-4-3-5.75-3.43,5.35-6.81,10.93-10.54,16.27a16.66,16.66,0,0,1-5.3,4.79c-7.75,4.41-16.29.35-16.93-8.6a62.44,62.44,0,0,1,1.65-18.15c3.56-15.42,7.79-30.69,11.66-46,.86-3.44,1.33-7,2-10.47l-1.22-.72c-1.44,1.44-3.29,2.65-4.27,4.36-6.18,10.71-12.28,21.44-15.21,33.66-3.49,14.57-7.28,29.07-10.94,43.6-.35,1.38-1,2.81-.87,4.17.38,4.45-2,6.19-5.91,7.1-3.47.8-6.82,2.14-11.06,3.51.85-5.44,1.57-10,2.41-15.43-2.65,4.13-4.76,7.67-7.13,11a29.9,29.9,0,0,1-5,5.65c-5.08,4.31-11.22,3.13-14.3-2.83-1.39-2.67-2.08-5.7-3.17-8.82-2.41,4-4.53,8.21-7.25,11.94-2.22,3.06-4.74,6.23-7.85,8.23-7.28,4.69-15,.43-15.37-8.24-.39-10,2.61-19.5,5.14-29,3.68-13.84,7.74-27.58,11.58-41.39a30.27,30.27,0,0,0,.56-4.49l-.94-.79c-1.38,1.25-3,2.3-4.08,3.79-5.5,7.94-10.61,16.11-13.4,25.48-3.91,13.12-8.2,26.14-11.62,39.39-1.82,7.07-2.29,14.5-3.13,21.8-.29,2.56-1.08,4-3.8,4.34a23.46,23.46,0,0,0-5.73,1.3c-3.29,1.25-4.31-.3-4.66-3.2-.25-2.16-.68-4.29-1.23-7.58-1.79,2.56-3.16,4.28-4.28,6.16-8.75,14.69-21.9,23.86-38.06,27.85-16.64,4.1-31.51-.93-43.9-12.77C15,566.61,8.67,552.24,6,536.33c-4.43-26-.59-51.29,7.68-76.12A158.38,158.38,0,0,1,42.9,407.26c13.31-15.73,28.68-29,49.11-34.48,12.62-3.38,25.14-2.61,36,5.93,7.85,6.16,12.4,14.28,12.41,24.37,0,19.09-4.87,36.6-18.65,50.5-6.85,6.9-15,11.8-25.44,11-10.8-.79-19.73-12.05-17.77-22.74.6-3.31,2.22-5.91,5.66-7.08,4.25-1.43,6.31-.68,8.36,3.25,3.27,6.24,6.08,7.24,12.45,4.27,7.79-3.63,12.56-10.13,16.18-17.58a54.23,54.23,0,0,0,5.91-23.07,24.08,24.08,0,0,0-1.23-7.41c-2.24-7-8.11-10.29-15.39-9.31-8,1.07-14.26,5.28-20.37,10.06-12.63,9.9-21.42,22.92-29.28,36.56A181.6,181.6,0,0,0,38.39,494c-2.38,15.06-3.76,30.33-.3,45.52,2.14,9.4,6.06,17.81,13.17,24.58,8,7.62,17.28,9.53,27.35,5.55C91.82,564.48,101.73,555.18,109,543c8.93-15,13.32-31.66,17.55-48.36,5.82-23,11.42-46.06,17.19-69.07,1.67-6.68,3.51-13.32,5.39-19.93a13.38,13.38,0,0,1,6.63-8.59c3.83-2.08,7.4-4.64,11.93-7.54-4.51,30-12.1,58.33-19.31,86.76l.86.45a48.93,48.93,0,0,1,3.75-6c3.34-4,6.4-8.48,10.51-11.5,6.6-4.85,14.29-1.27,16,6.75,1.32,6.14-.41,12-2.07,17.77-4.69,16.29-9.52,32.55-14.19,48.85a51.8,51.8,0,0,0-1,7c4.18-2,5.84-5.08,7.6-8,5.18-8.61,8.33-18,10.81-27.72,3.61-14.19,7.54-28.31,11.32-42.46a5.52,5.52,0,0,0,.48-2.21c-.8-4.22,1.38-6.19,5.08-7.28a33.71,33.71,0,0,0,4.84-2.07c2.26-1.09,4.3-1.21,6.25.74s3.42,4,2.5,7.23q-7.8,27.48-15.3,55-1.83,6.64-3.14,13.42a30.52,30.52,0,0,0-.06,5.74l.83.6a26.54,26.54,0,0,0,3.27-3.07,77.16,77.16,0,0,0,13.49-30c3.44-15.25,7.24-30.42,10.89-45.63.07-.31.23-.61.3-.93.54-2.41.3-6.1,1.75-7,3.27-2,7.32-2.82,11.17-3.57,2.92-.57,5.47,2.28,5.1,5.37-.32,2.78-1.06,5.51-1.18,8.51a70.77,70.77,0,0,1,4.53-7.8,65.68,65.68,0,0,1,8.64-9.8c3.9-3.41,8.65-4.3,13.43-1.54s5,7.42,4.52,11.88a122.17,122.17,0,0,1-3.34,16.7c-3.61,14.08-7.48,28.08-11.15,42.14a39.7,39.7,0,0,0-1,7.15c-.06.85.43,2.38.9,2.48a4.37,4.37,0,0,0,2.86-.81,7.13,7.13,0,0,0,1.95-2.2,48.82,48.82,0,0,0,7.56-22.07c2.05-23.09,9.54-44,26.36-60.73,6-5.91,12.88-9.92,21.79-8.8,5.7.72,10.78,6.58,9.58,12.09a132.87,132.87,0,0,1-5.33,16.82,13.83,13.83,0,0,1-3.32,4.44c-1.73,1.78-3.79,3.26-6.41,1.91s-4.59-3.37-4.55-6.67c.06-5.89,3.16-10.59,6-15.4.53-.89,1.1-1.76,1.81-2.87-3.51-.93-5.8.41-7.79,2.43-6.05,6.15-9.78,13.67-12.74,21.66-4.53,12.22-7.67,24.72-7.65,37.82a21.15,21.15,0,0,0,1.66,7.95c2.18,5.19,6.24,6.21,10.95,3.06,6-4,10.26-9.47,14.28-15.3,9.12-13.21,12.61-28.5,16.58-43.64,5.9-22.44,11.91-44.86,17.85-67.29a19.51,19.51,0,0,1,8.55-12c2.3-1.47,4.23-3.49,6.48-5.05a33.57,33.57,0,0,1,4.57-2.28l.82.9q-8.91,33.94-17.81,67.89l.67.35c.65-1,1.22-2.13,2-3.09,3.11-4.09,6-8.42,9.49-12.13,4.73-5,10.72-6.09,15.21-3.62,4.07,2.24,6.8,9,5.35,14.89-2.67,10.93-5.77,21.77-8.66,32.65-2.42,9.09-4.88,18.18-7.16,27.3-.41,1.67-.06,3.52-.06,5.29l1.18.54c1.85-2.17,3.87-4.21,5.5-6.54,6.62-9.42,9.27-20.39,12.09-31.32,3.34-12.89,6.95-25.72,10.39-38.59a15.14,15.14,0,0,0,.81-5.15c-.33-3.29.89-5.15,4.06-5.94,1.47-.37,2.9-1,4.35-1.45,6.47-2.17,10.71,4.44,9.3,9.53q-6,21.51-11.63,43.11c-1.94,7.4-3.71,14.87-5.24,22.37-.38,1.82.48,3.89.77,5.84,1.58-1,3.5-1.69,4.69-3,5.94-6.75,9-14.81,10.86-23.56C416.46,439,420,421,424.38,403.33c4-15.78,8.75-31.38,13.83-46.85a127.28,127.28,0,0,1,10.26-23,37.53,37.53,0,0,1,10.65-11.35c6.64-4.77,15.82-2.41,16.41,8.43.51,9.43-2.06,18.34-4.83,27.07-4.81,15.12-9.95,30.18-15.79,44.92-5.68,14.34-11.75,28.51-20.73,41.32-5.63,8-6.7,17.77-6.1,27.47a5.84,5.84,0,0,0,2.73,4.3c1.08.49,3.38-.55,4.52-1.58,7.45-6.74,12-15.46,15-24.8,3.65-11.44,6.33-23.18,9.61-34.74,4.31-15.2,8.63-30.41,13.26-45.52,3.32-10.83,6.8-21.64,10.93-32.19,2.08-5.33,5.4-10.29,8.81-14.95s7.82-7.73,13.88-7.7c5.23,0,8.78,3.28,9.55,8.51,1.06,7.15-.57,14-2.32,20.8-6.69,26-17,50.61-29.28,74.4-3.31,6.4-7.51,12.36-11.6,18.32-3.24,4.74-3.93,10.16-4.87,15.52a32.9,32.9,0,0,0-.62,8.83c.21,2.08,1.16,4.85,2.7,5.76,1.11.66,4.45-.69,5.55-2.11,3.65-4.75,7.44-9.62,9.86-15,3-6.63,4.71-13.82,6.82-20.82,4.47-14.89,10.78-28.75,22.27-39.64,5.45-5.17,11.46-9.72,19.43-10.15a67.26,67.26,0,0,1,10.81.19c5.39.61,10.33,7.55,9,12.75-2.17,8.24-4.8,16.37-7.12,24.58-2.41,8.52-4.78,17.06-7,25.64a27.7,27.7,0,0,0-.53,7.18c0,1,.57,2.69,1.28,2.95a3.67,3.67,0,0,0,3.17-1,72.92,72.92,0,0,0,7.42-9.15c2.13-3.29,3.52-7,5.41-10.5,3.78-6.92,11.76-11.27,18.78-10.38,8.11,1,14.64,8.9,15.38,18.52,1.07,13.8-4.75,25-13.48,35-10.27,11.66-23.74,18.62-37.8,24.48-19.32,8.07-39.68,12.46-60.1,16.54-23.74,4.74-47.67,8.57-71.24,14-26.24,6.05-52.4,12.68-78.15,20.5-31.89,9.68-62.36,23-90.68,40.79-8,5-15.59,10.65-23.25,16.15s-15.84,9.61-25.37,10c-10.54.42-16.78-6.33-16.41-16.88.31-8.94,4.37-15.94,10.76-21.8,9.46-8.66,20.8-14.24,32.46-19.11,21.57-9,44-15.29,66.61-21.15,31.68-8.22,63.53-15.71,95.7-21.77,34.77-6.56,69.62-12.67,104.39-19.2,20.46-3.84,40.92-7.84,59.9-17,11.9-5.75,21.8-13.69,27.22-26A21.74,21.74,0,0,0,572.9,443c-.63-5.58-6.35-7.38-10.23-3.29-3.3,3.47-5.9,7.61-8.71,11.52-2.49,3.47-4.74,7.12-7.3,10.54a18.41,18.41,0,0,1-10.22,6.78,10.52,10.52,0,0,1-13.5-9.53C522.83,457.61,522.6,456.24,522.5,455.4Zm-17.08-5.33.67.26a32.88,32.88,0,0,0,.92,5.47c1.2,3.51,3.31,4.07,5.81,1.38a22.56,22.56,0,0,0,4.81-7c3-7.85,5.63-15.83,8.2-23.83Q531.1,410,536,393.53c.44-1.49-.17-3.29-.3-4.94-1.53.58-3.56.72-4.52,1.81-3.53,4-7.4,8-9.86,12.63a146.15,146.15,0,0,0-9.31,22C509.3,433.24,507.58,441.72,505.42,450.07ZM464.11,334.74l-1.27-.57c-1.31,2.13-3,4.11-3.85,6.41-2.57,7.08-5.12,14.2-7.11,21.45-5.16,18.75-10.06,37.58-15,56.4-.88,3.36-1.35,6.84-2,10.26l1,.26a28.3,28.3,0,0,0,1.42-2.8c2.75-7.26,5.72-14.44,8.13-21.8q9.15-28,17.82-56.13C464.56,343.91,465.48,339.31,464.11,334.74Zm12.4,81.44.86.21a14.44,14.44,0,0,0,1.15-1.91c2.88-7.07,6-14.06,8.53-21.26,5.2-14.82,10.28-29.7,15-44.68,1.83-5.8,2.6-11.94,3.66-18,.17-1-.65-2.12-1-3.19-1.06.64-2.44,1.05-3.09,2a17.29,17.29,0,0,0-2.38,5c-6.36,21.38-12.75,42.76-18.91,64.21C478.66,404.35,477.75,410.31,476.51,416.18Z" transform="translate(-4.1 -314.16)"/><path class="cls-1" d="M196.39,428.47c0-7.76,6.58-15.83,14.09-17.34,5-1,9.27,2,8.93,6.9-.54,7.84-3.58,14.45-11.14,18S196.37,436.78,196.39,428.47Z" transform="translate(-4.1 -314.16)"/><path class="cls-1" d="M416.62,363c4,0,6.2,2.14,6.6,6.24.85,8.69-6.78,18.56-15.35,19.88-2.84.43-5.82-1.68-6.9-4.88C398,375.4,407.14,363,416.62,363Z" transform="translate(-4.1 -314.16)"/></svg>